#tb 0: 1/25
#media_type 0: video
#codec_id 0: rawvideo
#dimensions 0: 640x400
#sar 0: 0/1
0,          0,          0,        1,   768000, 0x772dd3d0
0,          1,          1,        1,   768000, 0xd7dab1d1
0,          2,          2,        1,   768000, 0x0e56f2d3
0,          3,          3,        1,   768000, 0x11c1fb8e
0,          4,          4,        1,   768000, 0x72d12da9
0,          5,          5,        1,   768000, 0x39c7a70d
0,          6,          6,        1,   768000, 0x94bd32a4
0,          7,          7,        1,   768000, 0x06dd5ba1
0,          8,          8,        1,   768000, 0x9616ec95
0,          9,          9,        1,   768000, 0x6df5b9e2
0,         10,         10,        1,   768000, 0x7be7f60a
0,         11,         11,        1,   768000, 0x2abc8623
0,         12,         12,        1,   768000, 0x5678bfff
0,         13,         13,        1,   768000, 0x24a03042
0,         14,         14,        1,   768000, 0xfb011b23
0,         15,         15,        1,   768000, 0x925ff5e9
0,         16,         16,        1,   768000, 0x890e2a56
